<svg width="1189" height="232" xmlns="http://www.w3.org/2000/svg" xmlns:xlink="http://www.w3.org/1999/xlink" xml:space="preserve" overflow="hidden"><defs><clipPath id="clip0"><rect x="2702" y="551" width="1189" height="232"/></clipPath></defs><g clip-path="url(#clip0)" transform="translate(-2702 -551)"><path d="M3523.27 598C3538.72 598.245 3551.82 602.494 3562.56 610.748 3573.31 619.002 3579.79 629.795 3582 643.126L3564.28 643.126C3562.76 634.368 3558.23 627.259 3550.69 621.798 3543.15 616.337 3533.94 613.523 3523.07 613.356 3508.29 613.423 3496.39 618.235 3487.38 627.792 3478.37 637.349 3473.74 651.251 3473.49 669.5 3473.74 687.748 3478.37 701.651 3487.38 711.208 3496.39 720.765 3508.29 725.577 3523.07 725.644 3534.15 725.477 3543.49 722.664 3551.09 717.202 3558.69 711.741 3563.15 704.632 3564.48 695.874L3582 695.874C3580.09 709.205 3573.76 719.998 3563.01 728.252 3552.26 736.506 3539.02 740.756 3523.27 741 3511.41 741.009 3500.4 738.397 3490.25 733.163 3480.11 727.93 3471.91 720.021 3465.65 709.438 3459.4 698.854 3456.18 685.541 3456 669.5 3456.19 653.395 3459.42 640.053 3465.7 629.473 3471.98 618.893 3480.19 611 3490.34 605.792 3500.49 600.585 3511.47 597.988 3523.27 598Z" fill="#3F19D9" fill-rule="evenodd"/><path d="M3785 600 3891 600 3891 615.378 3846.53 615.378 3846.53 740 3829.67 740 3829.67 615.378 3785 615.378 3785 600Z" fill="#3F19D9" fill-rule="evenodd"/><path d="M3210.9 638C3226.09 638.263 3238.33 643.081 3247.64 652.453 3256.95 661.825 3261.74 674.174 3262 689.5 3261.74 704.739 3256.95 717.063 3247.64 726.473 3238.33 735.882 3226.09 740.725 3210.9 741 3195.81 740.725 3183.62 735.882 3174.33 726.473 3165.05 717.063 3160.27 704.739 3160 689.5 3160.27 674.174 3165.05 661.825 3174.33 652.453 3183.62 643.081 3195.81 638.263 3210.9 638ZM3210.9 652.24C3200.49 652.43 3192.16 655.915 3185.91 662.695 3179.65 669.474 3176.44 678.409 3176.28 689.5 3176.44 700.59 3179.65 709.526 3185.91 716.305 3192.16 723.085 3200.49 726.57 3210.9 726.76 3221.4 726.57 3229.79 723.085 3236.07 716.305 3242.34 709.526 3245.56 700.59 3245.72 689.5 3245.56 678.409 3242.34 669.474 3236.07 662.695 3229.79 655.915 3221.4 652.43 3210.9 652.24Z" fill-rule="evenodd"/><path d="M3394 638C3408.83 638.288 3420.34 642.76 3428.53 651.415 3436.72 660.07 3440.88 671.18 3441 684.746 3440.97 687.152 3440.83 689.459 3440.6 691.667L3361.78 691.667C3362.53 702.159 3365.98 710.618 3372.11 717.045 3378.24 723.472 3386.14 726.776 3395.8 726.958 3404.04 726.921 3410.68 725.211 3415.74 721.828 3420.8 718.445 3424.09 713.612 3425.62 707.33L3442 707.33C3440.15 717.666 3435.15 725.83 3427.01 731.822 3418.86 737.814 3408.46 740.873 3395.8 741 3385.8 740.887 3377.08 738.496 3369.64 733.828 3362.2 729.16 3356.41 722.895 3352.28 715.033 3348.16 707.172 3346.06 698.394 3346 688.701 3346.15 673.847 3350.45 661.757 3358.89 652.429 3367.34 643.102 3379.04 638.292 3394 638ZM3394 651.448C3385.44 651.485 3378.45 653.84 3373.04 658.512 3367.62 663.185 3364.14 669.952 3362.58 678.814L3424.62 678.814C3423.86 670.299 3420.83 663.631 3415.54 658.81 3410.25 653.989 3403.07 651.535 3394 651.448Z" fill-rule="evenodd"/><path d="M3640.6 638C3653.78 638.156 3664.11 641.553 3671.59 648.194 3679.06 654.835 3682.86 663.785 3683 675.046L3683 739.415 3667.09 739.415 3667.09 722.001C3664.29 727.817 3659.84 732.419 3653.77 735.807 3647.7 739.195 3640.72 740.926 3632.83 741 3622.14 740.874 3613.7 738.111 3607.5 732.712 3601.3 727.313 3598.13 720.038 3598 710.885 3598.15 701.071 3601.78 693.365 3608.89 687.767 3616 682.169 3625.71 679.316 3638.01 679.21L3661.12 679.21C3663.29 679.21 3664.83 678.813 3665.75 678.02 3666.67 677.227 3667.12 676.037 3667.09 674.451 3667.05 667.506 3664.7 661.962 3660.07 657.818 3655.44 653.674 3648.82 651.551 3640.2 651.448 3632.67 651.601 3626.41 653.575 3621.43 657.372 3616.44 661.169 3613.67 665.87 3613.11 671.476L3598 671.476C3599.15 661.579 3603.66 653.57 3611.53 647.45 3619.4 641.33 3629.09 638.18 3640.6 638ZM3639.01 692.063C3631.44 692.109 3625.46 693.753 3621.05 696.995 3616.65 700.238 3614.4 704.806 3614.3 710.7 3614.38 715.826 3616.27 719.898 3619.98 722.918 3623.69 725.937 3628.77 727.482 3635.22 727.552 3645.35 727.461 3653.18 724.521 3658.7 718.73 3664.23 712.939 3667.02 704.843 3667.09 694.442L3667.09 692.063 3639.01 692.063Z" fill-rule="evenodd"/><path d="M3739 638C3750.48 638.069 3759.54 640.749 3766.16 646.039 3772.78 651.328 3776.53 658.813 3777.4 668.493L3762.22 668.493C3761.54 663.179 3759.15 658.992 3755.06 655.932 3750.98 652.872 3745.69 651.312 3739.2 651.25 3733.63 651.279 3728.91 652.608 3725.04 655.238 3721.17 657.869 3719.15 661.626 3718.98 666.511 3719.29 672.505 3722.36 676.372 3728.2 678.112 3734.04 679.852 3740.81 681.226 3748.49 682.233 3756.18 683.241 3762.94 685.643 3768.78 689.44 3774.62 693.237 3777.69 700.189 3778 710.297 3777.91 719.731 3774.6 727.178 3768.08 732.638 3761.56 738.098 3752.4 740.886 3740.6 741 3728.72 740.931 3719.37 738.004 3712.54 732.217 3705.72 726.431 3701.87 718.198 3701 707.521L3715.98 707.521C3716.63 713.814 3719.08 718.681 3723.34 722.123 3727.59 725.565 3733.34 727.309 3740.6 727.354 3747.2 727.301 3752.47 725.821 3756.39 722.916 3760.31 720.012 3762.32 716.004 3762.42 710.892 3762.11 704.592 3759.04 700.475 3753.2 698.539 3747.36 696.604 3740.6 695.124 3732.91 694.099 3725.23 693.074 3718.46 690.777 3712.62 687.208 3706.78 683.638 3703.71 677.07 3703.4 667.502 3703.58 658.557 3706.91 651.435 3713.39 646.137 3719.87 640.839 3728.41 638.127 3739 638Z" fill-rule="evenodd"/><path d="M3282 639 3297.93 639 3297.93 659.421C3300.06 652.525 3303.32 647.394 3307.7 644.029 3312.07 640.664 3317.92 638.987 3325.24 639L3338 639 3338 653.207 3324.24 653.207C3314.25 653.478 3307.32 657.546 3303.46 665.409 3299.6 673.272 3297.75 683.303 3297.93 695.501L3297.93 740 3282 740 3282 639Z" fill-rule="evenodd"/><path d="M3165 612.196 3165 593 3108.25 593 3072 629.508 3072 739 3093.57 739 3093.57 674.981 3151.33 674.981 3151.33 655.753 3093.57 655.753 3093.57 612.196 3165 612.196Z" fill="#3F19D9" fill-rule="evenodd"/><path d="M2702 667.5C2702 652.312 2714.31 640 2729.5 640L2905.5 640C2920.69 640 2933 652.312 2933 667.5L2933 667.5C2933 682.688 2920.69 695 2905.5 695L2729.5 695C2714.31 695 2702 682.688 2702 667.5Z" fill="#D9D9D9" fill-rule="evenodd"/><path d="M2702 667.5C2702 652.312 2714.31 640 2729.5 640L2838.5 640C2853.69 640 2866 652.312 2866 667.5L2866 667.5C2866 682.688 2853.69 695 2838.5 695L2729.5 695C2714.31 695 2702 682.688 2702 667.5Z" fill="#3F19D9" fill-rule="evenodd"/><path d="M2702 579C2702 563.536 2714.54 551 2730 551L2905 551C2920.46 551 2933 563.536 2933 579L2933 579C2933 594.464 2920.46 607 2905 607L2730 607C2714.54 607 2702 594.464 2702 579Z" fill="#D9D9D9" fill-rule="evenodd"/><path d="M2702 579C2702 563.536 2714.54 551 2730 551L2862 551C2877.46 551 2890 563.536 2890 579L2890 579C2890 594.464 2877.46 607 2862 607L2730 607C2714.54 607 2702 594.464 2702 579Z" fill-rule="evenodd"/><path d="M2702 755.5C2702 740.312 2714.31 728 2729.5 728L2905.5 728C2920.69 728 2933 740.312 2933 755.5L2933 755.5C2933 770.688 2920.69 783 2905.5 783L2729.5 783C2714.31 783 2702 770.688 2702 755.5Z" fill="#D9D9D9" fill-rule="evenodd"/><path d="M2702 755.5C2702 740.312 2714.31 728 2729.5 728L2753.5 728C2768.69 728 2781 740.312 2781 755.5L2781 755.5C2781 770.688 2768.69 783 2753.5 783L2729.5 783C2714.31 783 2702 770.688 2702 755.5Z" fill="#9F8CEC" fill-rule="evenodd"/></g></svg>