<svg width="1653" height="235" xmlns="http://www.w3.org/2000/svg" xmlns:xlink="http://www.w3.org/1999/xlink" xml:space="preserve" overflow="hidden"><defs><clipPath id="clip0"><rect x="2702" y="551" width="1653" height="235"/></clipPath></defs><g clip-path="url(#clip0)" transform="translate(-2702 -551)"><path d="M3770.77 560C3795.3 560.386 3816.09 567.102 3833.15 580.147 3850.21 593.192 3860.49 610.249 3864 631.318L3835.87 631.318C3833.46 617.477 3826.28 606.241 3814.31 597.61 3802.34 588.979 3787.72 584.532 3770.46 584.269 3746.99 584.375 3728.11 591.979 3713.81 607.083 3699.51 622.187 3692.17 644.159 3691.77 673 3692.17 701.84 3699.51 723.812 3713.81 738.916 3728.11 754.021 3746.99 761.626 3770.46 761.731 3788.05 761.468 3802.88 757.021 3814.94 748.39 3827 739.758 3834.08 728.523 3836.19 714.681L3864 714.681C3860.97 735.75 3850.92 752.807 3833.86 765.853 3816.8 778.898 3795.77 785.614 3770.77 786 3751.95 786.014 3734.48 781.886 3718.37 773.615 3702.27 765.344 3689.25 752.845 3679.32 736.118 3669.4 719.392 3664.29 698.352 3664 673 3664.29 647.548 3669.43 626.461 3679.39 609.741 3689.36 593.02 3702.4 580.545 3718.51 572.315 3734.63 564.085 3752.05 559.98 3770.77 560Z" fill="#3F19D9" fill-rule="evenodd"/><path d="M4186 562 4355 562 4355 586.275 4284.09 586.275 4284.09 783 4257.22 783 4257.22 586.275 4186 586.275 4186 562Z" fill="#3F19D9" fill-rule="evenodd"/><path d="M3275.84 622C3299.96 622.419 3319.41 630.09 3334.19 645.013 3348.98 659.935 3356.58 679.598 3357 704 3356.58 728.264 3348.98 747.887 3334.19 762.869 3319.41 777.851 3299.96 785.562 3275.84 786 3251.88 785.562 3232.52 777.851 3217.77 762.869 3203.01 747.887 3195.43 728.264 3195 704 3195.43 679.598 3203.01 659.935 3217.77 645.013 3232.52 630.09 3251.88 622.419 3275.84 622ZM3275.84 644.674C3259.31 644.976 3246.08 650.525 3236.15 661.32 3226.21 672.115 3221.12 686.341 3220.86 704 3221.12 721.658 3226.21 735.885 3236.15 746.68 3246.08 757.475 3259.31 763.024 3275.84 763.326 3292.52 763.024 3305.85 757.475 3315.81 746.68 3325.78 735.885 3330.89 721.658 3331.14 704 3330.89 686.341 3325.78 672.115 3315.81 661.32 3305.85 650.525 3292.52 644.976 3275.84 644.674Z" fill-rule="evenodd"/><path d="M3567 622C3590.48 622.458 3608.71 629.578 3621.68 643.359 3634.65 657.14 3641.23 674.83 3641.42 696.431 3641.36 700.261 3641.15 703.935 3640.78 707.45L3515.98 707.45C3517.18 724.155 3522.63 737.624 3532.34 747.858 3542.05 758.091 3554.56 763.352 3569.85 763.642 3582.89 763.583 3593.41 760.86 3601.42 755.474 3609.43 750.087 3614.64 742.393 3617.06 732.389L3643 732.389C3640.07 748.847 3632.16 761.846 3619.26 771.387 3606.36 780.927 3589.89 785.798 3569.85 786 3554.02 785.819 3540.21 782.013 3528.43 774.58 3516.64 767.147 3507.49 757.172 3500.95 744.655 3494.42 732.138 3491.1 718.162 3491 702.728 3491.24 679.077 3498.04 659.826 3511.41 644.975 3524.79 630.124 3543.32 622.465 3567 622ZM3567 643.412C3553.44 643.471 3542.38 647.22 3533.81 654.66 3525.24 662.1 3519.72 672.875 3517.25 686.985L3615.48 686.985C3614.27 673.427 3609.48 662.811 3601.1 655.134 3592.73 647.457 3581.36 643.55 3567 643.412Z" fill-rule="evenodd"/><path d="M3957.66 622C3978.6 622.247 3995 627.658 4006.87 638.231 4018.74 648.804 4024.78 663.056 4025 680.985L4025 783.476 3999.74 783.476 3999.74 755.749C3995.28 765.009 3988.22 772.337 3978.58 777.732 3968.94 783.126 3957.85 785.882 3945.32 786 3928.34 785.799 3914.93 781.399 3905.09 772.803 3895.24 764.207 3890.21 752.623 3890 738.05 3890.24 722.424 3896 710.154 3907.3 701.24 3918.59 692.327 3934.01 687.785 3953.54 687.616L3990.25 687.616C3993.69 687.616 3996.14 686.984 3997.6 685.721 3999.07 684.458 3999.78 682.564 3999.74 680.038 3999.66 668.98 3995.94 660.152 3988.59 653.555 3981.23 646.957 3970.71 643.576 3957.03 643.412 3945.07 643.655 3935.13 646.799 3927.21 652.845 3919.28 658.89 3914.88 666.375 3914 675.302L3890 675.302C3891.83 659.543 3898.99 646.792 3911.49 637.047 3923.98 627.302 3939.37 622.287 3957.66 622ZM3955.13 708.081C3943.11 708.154 3933.6 710.771 3926.61 715.934 3919.62 721.097 3916.04 728.37 3915.89 737.755 3916.01 745.917 3919.02 752.401 3924.91 757.209 3930.8 762.017 3938.87 764.476 3949.11 764.588 3965.21 764.443 3977.64 759.761 3986.41 750.54 3995.18 741.32 3999.63 728.43 3999.74 711.869L3999.74 708.081 3955.13 708.081Z" fill-rule="evenodd"/><path d="M4113.71 622C4131.76 622.11 4145.99 626.377 4156.39 634.799 4166.8 643.222 4172.69 655.139 4174.06 670.551L4150.2 670.551C4149.13 662.09 4145.38 655.423 4138.96 650.552 4132.53 645.68 4124.22 643.195 4114.03 643.096 4105.27 643.142 4097.85 645.259 4091.77 649.447 4085.69 653.635 4082.52 659.618 4082.26 667.396 4082.74 676.94 4087.57 683.098 4096.75 685.868 4105.92 688.639 4116.55 690.826 4128.63 692.43 4140.7 694.034 4151.33 697.859 4160.51 703.904 4169.69 709.95 4174.52 721.019 4175 737.114 4174.85 752.135 4169.66 763.992 4159.41 772.686 4149.17 781.38 4134.78 785.818 4116.23 786 4097.56 785.89 4082.86 781.229 4072.14 772.016 4061.42 762.802 4055.37 749.695 4054 732.693L4077.55 732.693C4078.57 742.713 4082.42 750.463 4089.1 755.944 4095.78 761.424 4104.83 764.201 4116.23 764.273 4126.6 764.187 4134.87 761.832 4141.04 757.207 4147.21 752.582 4150.37 746.2 4150.52 738.061 4150.03 728.03 4145.2 721.474 4136.03 718.393 4126.85 715.311 4116.22 712.955 4104.14 711.323 4092.07 709.691 4081.44 706.033 4072.26 700.35 4063.09 694.667 4058.26 684.208 4057.77 668.973 4058.06 654.731 4063.29 643.392 4073.48 634.956 4083.66 626.521 4097.07 622.202 4113.71 622Z" fill-rule="evenodd"/><path d="M3388 624 3413.31 624 3413.31 656.147C3416.7 645.291 3421.88 637.214 3428.84 631.917 3435.79 626.619 3445.09 623.98 3456.72 624L3477 624 3477 646.365 3455.14 646.365C3439.25 646.792 3428.24 653.196 3422.1 665.574 3415.96 677.953 3413.03 693.744 3413.31 712.947L3413.31 783 3388 783 3388 624Z" fill-rule="evenodd"/><path d="M3204 581.503 3204 551 3113.07 551 3055 609.013 3055 783 3089.56 783 3089.56 681.271 3182.09 681.271 3182.09 650.716 3089.56 650.716 3089.56 581.503 3204 581.503Z" fill="#3F19D9" fill-rule="evenodd"/><path d="M2702 667.5C2702 652.312 2714.31 640 2729.5 640L2905.5 640C2920.69 640 2933 652.312 2933 667.5L2933 667.5C2933 682.688 2920.69 695 2905.5 695L2729.5 695C2714.31 695 2702 682.688 2702 667.5Z" fill="#D9D9D9" fill-rule="evenodd"/><path d="M2702 667.5C2702 652.312 2714.31 640 2729.5 640L2838.5 640C2853.69 640 2866 652.312 2866 667.5L2866 667.5C2866 682.688 2853.69 695 2838.5 695L2729.5 695C2714.31 695 2702 682.688 2702 667.5Z" fill="#3F19D9" fill-rule="evenodd"/><path d="M2702 579C2702 563.536 2714.54 551 2730 551L2905 551C2920.46 551 2933 563.536 2933 579L2933 579C2933 594.464 2920.46 607 2905 607L2730 607C2714.54 607 2702 594.464 2702 579Z" fill="#D9D9D9" fill-rule="evenodd"/><path d="M2702 579C2702 563.536 2714.54 551 2730 551L2862 551C2877.46 551 2890 563.536 2890 579L2890 579C2890 594.464 2877.46 607 2862 607L2730 607C2714.54 607 2702 594.464 2702 579Z" fill-rule="evenodd"/><path d="M2702 755.5C2702 740.312 2714.31 728 2729.5 728L2905.5 728C2920.69 728 2933 740.312 2933 755.5L2933 755.5C2933 770.688 2920.69 783 2905.5 783L2729.5 783C2714.31 783 2702 770.688 2702 755.5Z" fill="#D9D9D9" fill-rule="evenodd"/><path d="M2702 755.5C2702 740.312 2714.31 728 2729.5 728L2753.5 728C2768.69 728 2781 740.312 2781 755.5L2781 755.5C2781 770.688 2768.69 783 2753.5 783L2729.5 783C2714.31 783 2702 770.688 2702 755.5Z" fill="#9F8CEC" fill-rule="evenodd"/></g></svg>